# xmcd
#
# Track frame offsets:
#	183
#	15275
#	27198
#	42865
#	52648
#	63595
#	75125
#	88003
#	97923
#	112960
#	126830
#	138670
#
# Disc length: 1985 seconds
#
# Revision: 1
# Processed by: cddbd v1.5.2PL0 Copyright (c) Steve Scherf et al.
# Submitted via: audiograbber 1.83.01
#
DISCID=8307bf0c
DTITLE=Kenny Rogers and Dolly Parton - Country Show (Vol. 2)
DYEAR=1900
DGENRE=Country
TTITLE0=For the good times (Kenny Rogers)
TTITLE1=Letter to heaven (Dolly Parton)
TTITLE2=My Washington woman (Kenny Rogers)
TTITLE3=Where does Rosie go (Kenny Rogers)
TTITLE4=It wasn´t God who made honky tonk angels (Dolly Parton)
TTITLE5=Poem for my little lady (Kenny Rogers)
TTITLE6=Ruby, don´t take your love to town (Kenny Rogers)
TTITLE7=Release me (Dolly Parton)
TTITLE8=Conditions (just dropped in) (Kenny Rogers)
TTITLE9=Sunshine (Kenny Rogers)
TTITLE10=Makin´ believe (Dolly Parton)
TTITLE11=Ticket to nowhere (Kenny Rogers)
EXTD=
EXTT0=
EXTT1=
EXTT2=
EXTT3=
EXTT4=
EXTT5=
EXTT6=
EXTT7=
EXTT8=
EXTT9=
EXTT10=
EXTT11=
PLAYORDER=
